<svg width="14" height="14" viewBox="0 0 14 14" fill="none" xmlns="http://www.w3.org/2000/svg">
<path d="M13.7076 13.0773L13.7076 13.0768L13.7108 13.0768L13.8083 8.30946C13.856 5.97725 13.3977 4.17782 10.7092 4.16211C9.41678 4.15457 8.53475 4.86877 8.16671 5.5486L8.12933 5.54838L8.15353 4.36494L5.60443 4.35005L5.42695 13.0284L8.08125 13.0439L8.16914 8.7467C8.19228 7.61526 8.42615 6.52243 9.80778 6.5305C11.1691 6.53845 11.163 7.82978 11.1424 8.83665L11.056 13.0618L13.7076 13.0773Z" fill="white"/>
<path d="M1.22852 4.30807L3.8378 4.32322L3.66758 12.9821L1.0583 12.9669L1.22852 4.30807Z" fill="white"/>
<path d="M2.54672 0.00907974C1.69448 0.00410099 0.988629 0.698663 0.971006 1.5596C0.953383 2.42055 1.63033 3.1378 2.48258 3.14278C3.33482 3.14775 4.04097 2.43858 4.05859 1.57764C4.07568 0.716697 3.39843 0.0140554 2.54672 0.00907974V0.00907974Z" fill="white"/>
</svg>
